<svg t="1739697696562" class="icon" viewBox="0 0 1024 1024" version="1.1" xmlns="http://www.w3.org/2000/svg" p-id="1189" width="256" height="256"><path d="M938.666667 85.333333h-4.266667l-307.2 81.066667-302.933333 422.4-25.6-25.6c-17.066667-17.066667-42.666667-17.066667-59.733334 0-17.066667 17.066667-17.066667 42.666667 0 59.733333l42.666667 42.666667L170.666667 780.8h-17.066667-4.266667-4.266666-4.266667s-4.266667 0-4.266667 4.266667h-4.266666s-4.266667 0-4.266667 4.266666h-4.266667l-4.266666 4.266667c-4.266667 0-4.266667 4.266667-4.266667 4.266667l-4.266667 4.266666-4.266666 4.266667v4.266667s0 4.266667-4.266667 4.266666v59.733334l12.8 25.6 4.266667 4.266666v4.266667c29.866667 29.866667 81.066667 29.866667 110.933333 0 17.066667-17.066667 25.6-38.4 21.333333-64l110.933334-110.933333 46.933333 46.933333c17.066667 17.066667 42.666667 17.066667 59.733333 0 17.066667-17.066667 17.066667-42.666667 0-59.733333l-25.6-25.6 422.4-302.933334L938.666667 85.333333z" fill="#515151" p-id="1190"></path></svg>